HIERARCHY
ROOT Hips
{
  OFFSET -4.35178 90.3298 111.633
  CHANNELS 6 Xposition Yposition Zposition Zrotation Xrotation Yrotation
  JOINT LeftUpLeg
  {
    OFFSET 0.103456 1.85784 10.5485
    CHANNELS 6 Xposition Yposition Zposition Zrotation Xrotation Yrotation
    JOINT LeftLeg
    {
      OFFSET 43.5 -4.2e-05 0
      CHANNELS 6 Xposition Yposition Zposition Zrotation Xrotation Yrotation
      JOINT LeftFoot
      {
        OFFSET 42.3722 1.9e-05 0
        CHANNELS 6 Xposition Yposition Zposition Zrotation Xrotation Yrotation
        JOINT LeftToe
        {
          OFFSET 17.3 0 0
          CHANNELS 6 Xposition Yposition Zposition Zrotation Xrotation Yrotation
          End Site
          {
            OFFSET 0 0 0
          }
        }
      }
    }
  }
  JOINT RightUpLeg
  {
    OFFSET 0.103456 1.85782 -10.5485
    CHANNELS 6 Xposition Yposition Zposition Zrotation Xrotation Yrotation
    JOINT RightLeg
    {
      OFFSET 43.5 -2.7e-05 0
      CHANNELS 6 Xposition Yposition Zposition Zrotation Xrotation Yrotation
      JOINT RightFoot
      {
        OFFSET 42.3723 0 0
        CHANNELS 6 Xposition Yposition Zposition Zrotation Xrotation Yrotation
        JOINT RightToe
        {
          OFFSET 17.3 0 1.7e-05
          CHANNELS 6 Xposition Yposition Zposition Zrotation Xrotation Yrotation
          End Site
          {
            OFFSET 0 0 0
          }
        }
      }
    }
  }
  JOINT Spine
  {
    OFFSET 6.90197 -2.60373 0
    CHANNELS 6 Xposition Yposition Zposition Zrotation Xrotation Yrotation
    JOINT Spine1
    {
      OFFSET 12.5881 0 0
      CHANNELS 6 Xposition Yposition Zposition Zrotation Xrotation Yrotation
      JOINT Spine2
      {
        OFFSET 12.3432 -1.8e-05 0
        CHANNELS 6 Xposition Yposition Zposition Zrotation Xrotation Yrotation
        JOINT Neck
        {
          OFFSET 25.8329 2.3e-05 0
          CHANNELS 6 Xposition Yposition Zposition Zrotation Xrotation Yrotation
          JOINT Head
          {
            OFFSET 11.7666 0 0
            CHANNELS 6 Xposition Yposition Zposition Zrotation Xrotation Yrotation
            End Site
            {
              OFFSET 0 0 0
            }
          }
        }
        JOINT LeftShoulder
        {
          OFFSET 19.7459 -1.48035 6.0001
          CHANNELS 6 Xposition Yposition Zposition Zrotation Xrotation Yrotation
          JOINT LeftArm
          {
            OFFSET 11.2841 1.8e-05 -2e-05
            CHANNELS 6 Xposition Yposition Zposition Zrotation Xrotation Yrotation
            JOINT LeftForeArm
            {
              OFFSET 33 -1.3e-05 1.9e-05
              CHANNELS 6 Xposition Yposition Zposition Zrotation Xrotation Yrotation
              JOINT LeftHand
              {
                OFFSET 25.2 3.2e-05 1.1e-05
                CHANNELS 6 Xposition Yposition Zposition Zrotation Xrotation Yrotation
                End Site
                {
                  OFFSET 0 0 0
                }
              }
            }
          }
        }
        JOINT RightShoulder
        {
          OFFSET 19.7461 -1.48036 -6.00008
          CHANNELS 6 Xposition Yposition Zposition Zrotation Xrotation Yrotation
          JOINT RightArm
          {
            OFFSET 11.2841 0 0
            CHANNELS 6 Xposition Yposition Zposition Zrotation Xrotation Yrotation
            JOINT RightForeArm
            {
              OFFSET 33.0001 1.6e-05 0
              CHANNELS 6 Xposition Yposition Zposition Zrotation Xrotation Yrotation
              JOINT RightHand
              {
                OFFSET 25.1998 0.000123 0.000432
                CHANNELS 6 Xposition Yposition Zposition Zrotation Xrotation Yrotation
                End Site
                {
                  OFFSET 0 0 0
                }
              }
            }
          }
        }
      }
    }
  }
}
MOTION
Frames:	9
Frame Time:	0.0333333
21.1608 91.6996 1.53615 36.6047 83.8517 55.2681 0.103456 1.85784 10.5485 10.198 2.54474 179.978 43.5 -4.2e-05 1e-05 -10.5668 -9.21923 -1.69946 42.3722 1.9e-05 0 75.9184 -4.60212 5.28549 17.3 0 3e-06 21.4546 -1e-06 0.003093 0.103456 1.85782 -10.5485 4.24829 -11.3184 172.205 43.5 -2.7e-05 4e-06 -18.3334 11.5817 2.24562 42.3723 -1.77636e-15 1e-05 81.3812 9.06401 -6.58968 17.3 -6e-06 1.7e-05 21.4546 -1.9e-05 -0.003116 6.90197 -2.60373 -3e-06 7.26151 0.0817719 -0.278827 12.5881 1e-05 8e-06 4.50864 0.182589 -0.544233 12.3432 -1.8e-05 -5e-06 4.18919 0.214086 -0.543927 25.8329 2.3e-05 7e-06 4.768 -1.32728 -6.7398 11.7666 -8e-06 -6e-06 -20.6562 -5.40679 10.4873 19.7459 -1.48035 6.0001 176.866 -4.92013 -91.3494 11.2841 1.8e-05 -2e-05 12.3609 -16.8352 23.1173 33 -1.3e-05 1.9e-05 -28.7963 3.42432 -17.265 25.2 3.2e-05 1.1e-05 9.15484 31.304 -3.69806 19.7461 -1.48036 -6.00008 178.14 10.206 88.3607 11.2841 -3.55271e-15 -1e-06 -1.89939 5.52969 -14.1808 33.0001 1.6e-05 -1e-06 -35.7951 -3.69032 18.3 25.1998 0.000123 0.000432 5.09088 -15.2067 4.41834 
21.5463 91.7039 1.86743 38.4031 83.7008 53.5119 0.103456 1.85784 10.5485 10.5527 2.51444 179.629 43.5 -4.2e-05 1e-05 -10.4228 -9.3556 -1.68503 42.3722 1.9e-05 -7.10543e-15 76.2374 -4.60574 5.30525 17.3 -8.88178e-16 3e-06 21.4546 -1e-06 0.003093 0.103456 1.85782 -10.5485 3.74897 -10.9951 171.853 43.5 -2.7e-05 4e-06 -19.5947 11.6934 2.24653 42.3723 0 1e-05 81.6779 9.18605 -6.8521 17.3 -6e-06 1.7e-05 21.4546 -1.9e-05 -0.003116 6.90197 -2.60373 -3e-06 7.33869 0.0879578 -0.23001 12.5881 1e-05 8e-06 4.6625 0.203244 -0.447596 12.3432 -1.8e-05 -5e-06 4.34242 0.243007 -0.448512 25.8329 2.3e-05 7e-06 4.44117 -1.25895 -6.83498 11.7666 -8e-06 -6e-06 -19.699 -5.10206 10.319 19.7459 -1.48035 6.0001 177.17 -4.76246 -90.7816 11.2841 1.8e-05 -2e-05 13.3243 -17.1938 24.9753 33 -1.3e-05 1.9e-05 -30.8061 3.57872 -16.9696 25.2 3.2e-05 1.1e-05 8.67248 31.4333 -4.37023 19.7461 -1.48036 -6.00008 178.524 10.2043 87.4578 11.2841 0 -1e-06 -1.82018 5.28781 -15.0235 33.0001 1.6e-05 -1e-06 -39.2889 -4.10383 18.8919 25.1998 0.000123 0.000432 4.20573 -15.171 4.62746 
21.9939 91.6355 2.21238 40.0571 83.59 51.9426 0.103456 1.85784 10.5485 10.836 2.57287 179.221 43.5 -4.2e-05 1e-05 -10.351 -9.45079 -1.68071 42.3722 1.9e-05 7.10543e-15 76.5906 -4.54134 5.24184 17.3 8.88178e-16 3e-06 21.4546 -1e-06 0.003093 0.103456 1.85782 -10.5485 2.89483 -10.4379 171.421 43.5 -2.7e-05 4e-06 -21.5124 11.8826 2.24954 42.3723 0 1e-05 82.0454 9.40037 -7.33014 17.3 -6e-06 1.7e-05 21.4546 -1.9e-05 -0.003116 6.90197 -2.60373 -3e-06 7.43953 0.068919 -0.173788 12.5881 1e-05 8e-06 4.86411 0.175252 -0.332596 12.3432 -1.8e-05 -5e-06 4.54403 0.225235 -0.33167 25.8329 2.3e-05 7e-06 4.06837 -1.11803 -6.98515 11.7666 -8e-06 -6e-06 -18.6331 -4.66029 10.171 19.7459 -1.48035 6.0001 177.653 -4.44924 -90.0278 11.2841 1.8e-05 -2e-05 15.0138 -17.7577 27.8993 33 -1.3e-05 1.9e-05 -33.4745 3.27364 -16.2908 25.2 3.2e-05 1.1e-05 7.77679 31.3375 -4.95066 19.7461 -1.48036 -6.00008 178.928 10.1868 86.4229 11.2841 3.55271e-15 -1e-06 -1.72813 5.30732 -16.4177 33.0001 1.6e-05 -1e-06 -43.1094 -4.40673 19.4403 25.1998 0.000123 0.000432 3.03056 -15.049 4.93261 
22.5122 91.5483 2.58754 42.0312 83.4549 50.1539 0.103456 1.85784 10.5485 11.2212 2.73846 178.656 43.5 -4.2e-05 1e-05 -10.108 -9.52785 -1.65432 42.3722 1.9e-05 7.10543e-15 76.837 -4.37043 5.13319 17.3 0 3e-06 21.4546 -1e-06 0.003093 0.103456 1.85782 -10.5485 1.59965 -9.45284 170.895 43.5 -2.7e-05 4e-06 -24.3163 12.1794 2.27093 42.3723 -1.77636e-15 1e-05 82.4241 9.61783 -8.24439 17.3 -6e-06 1.7e-05 21.4546 -1.9e-05 -0.003116 6.90197 -2.60373 -3e-06 7.57715 0.0313225 -0.167554 12.5881 1e-05 8e-06 5.14006 0.103924 -0.314458 12.3432 -1.8e-05 -5e-06 4.82095 0.15934 -0.308729 25.8329 2.3e-05 7e-06 3.66316 -0.829874 -7.20694 11.7666 -8e-06 -6e-06 -17.5345 -4.12658 10.2347 19.7459 -1.48035 6.0001 178.424 -4.0339 -88.775 11.2841 1.8e-05 -2e-05 16.5873 -17.8061 30.8476 33 -1.3e-05 1.9e-05 -36.6993 2.69337 -15.0549 25.2 3.2e-05 1.1e-05 6.1446 31.2032 -5.02392 19.7461 -1.48036 -6.00008 179.419 10.2343 85.1476 11.2841 -3.55271e-15 -1e-06 -1.92232 5.48953 -18.5976 33.0001 1.6e-05 -1e-06 -46.9007 -4.9424 19.9018 25.1998 0.000123 0.000432 1.86348 -15.1468 5.42137 
23.0715 91.4199 2.97262 44.3352 83.3072 48.0741 0.103456 1.85784 10.5485 11.5137 2.97443 178.018 43.5 -4.2e-05 1e-05 -9.99216 -9.63515 -1.62161 42.3722 1.9e-05 -7.10543e-15 77.1895 -4.11729 4.98498 17.3 0 3e-06 21.4546 -1e-06 0.003093 0.103456 1.85782 -10.5485 -0.336939 -8.0801 170.203 43.5 -2.7e-05 4e-06 -28.4046 12.4467 2.62102 42.3723 0 1e-05 82.6769 9.58014 -9.63513 17.3 -6e-06 1.7e-05 21.4546 -1.9e-05 -0.003116 6.90197 -2.60373 -3e-06 7.7277 0.00783265 -0.185106 12.5881 1e-05 8e-06 5.44172 0.0574876 -0.345662 12.3432 -1.8e-05 -5e-06 5.12336 0.115647 -0.336557 25.8329 2.3e-05 7e-06 3.39778 -0.522114 -7.33624 11.7666 -8e-06 -6e-06 -16.6474 -3.7093 10.4082 19.7459 -1.48035 6.0001 179.173 -3.79567 -87.3993 11.2841 1.8e-05 -2e-05 17.2613 -17.6297 34.0685 33 -1.3e-05 1.9e-05 -39.8211 2.19466 -13.4654 25.2 3.2e-05 1.1e-05 4.31296 31.1739 -4.5669 19.7461 -1.48036 -6.00008 -179.901 10.3016 83.5332 11.2841 0 -1e-06 -2.25593 5.49146 -21.1938 33.0001 1.6e-05 -1e-06 -50.4798 -6.02224 20.3853 25.1998 0.000123 0.000432 0.252721 -15.4946 6.02604 
23.6446 91.1691 3.33922 47.5271 83.0701 45.1243 0.103456 1.85784 10.5485 11.4866 3.23173 177.338 43.5 -4.2e-05 1e-05 -10.5403 -9.78832 -1.56998 42.3722 1.9e-05 0 78.0221 -3.97594 4.84878 17.3 8.88178e-16 3e-06 21.4546 -1e-06 0.003093 0.103456 1.85782 -10.5485 -3.14315 -6.40557 169.257 43.5 -2.7e-05 4e-06 -34.1142 12.504 3.50275 42.3723 -5.32907e-15 1e-05 82.6563 8.99648 -11.3848 17.3 -6e-06 1.7e-05 21.4546 -1.9e-05 -0.003116 6.90197 -2.60373 -3e-06 7.88914 0.0101272 -0.214407 12.5881 1e-05 8e-06 5.76484 0.0608323 -0.404058 12.3432 -1.8e-05 -5e-06 5.4466 0.120263 -0.394601 25.8329 2.3e-05 7e-06 3.34512 -0.377115 -7.29823 11.7666 -8e-06 -6e-06 -16.1262 -3.56765 10.5006 19.7459 -1.48035 6.0001 179.886 -3.72147 -86.089 11.2841 1.8e-05 -2e-05 17.4106 -17.5221 37.9359 33 -1.3e-05 1.9e-05 -42.7406 2.15294 -11.9592 25.2 3.2e-05 1.1e-05 2.49824 31.3146 -3.7902 19.7461 -1.48036 -6.00008 -179.015 10.3012 81.8851 11.2841 7.10543e-15 -1e-06 -2.43623 5.8683 -24.4243 33.0001 1.6e-05 -1e-06 -54.117 -6.75363 20.7175 25.1998 0.000123 0.000432 -1.06176 -15.648 6.49304 
24.2344 90.9093 3.7258 51.258 82.7227 41.6876 0.103456 1.85784 10.5485 11.6572 3.57172 176.576 43.5 -4.2e-05 1e-05 -10.7241 -9.98499 -1.54092 42.3722 1.9e-05 -7.10543e-15 78.6909 -3.79693 4.69973 17.3 0 3e-06 21.4546 -1e-06 0.003093 0.103456 1.85782 -10.5485 -6.61479 -4.58775 168.383 43.5 -2.7e-05 4e-06 -40.8158 12.2593 4.19911 42.3723 -3.55271e-15 1e-05 81.6441 8.87814 -13.2984 17.3 -6e-06 1.7e-05 21.4546 -1.9e-05 -0.003116 6.90197 -2.60373 -3e-06 8.05764 0.0241451 -0.268653 12.5881 1e-05 8e-06 6.10167 0.0837033 -0.514003 12.3432 -1.8e-05 -5e-06 5.7834 0.141398 -0.505298 25.8329 2.3e-05 7e-06 3.40853 -0.181057 -7.31727 11.7666 -8e-06 -6e-06 -15.7471 -3.32681 10.5463 19.7459 -1.48035 6.0001 -179.326 -3.51384 -84.776 11.2841 1.8e-05 -2e-05 17.452 -17.3918 42.0107 33 -1.3e-05 1.9e-05 -45.8369 1.66899 -10.3598 25.2 3.2e-05 1.1e-05 0.722136 31.2838 -2.85523 19.7461 -1.48036 -6.00008 -177.912 10.2736 80.1437 11.2841 7.10543e-15 -1e-06 -2.45288 6.37908 -28.0221 33.0001 1.6e-05 -1e-06 -58.0411 -6.81542 20.8631 25.1998 0.000123 0.000432 -2.54409 -15.5148 6.89909 
24.7705 90.6918 4.1597 54.5417 82.2513 38.6927 0.103456 1.85784 10.5485 12.2738 3.88154 175.838 43.5 -4.2e-05 1e-05 -10.215 -10.2039 -1.5632 42.3722 1.9e-05 0 79.0738 -3.68258 4.54201 17.3 0 3e-06 21.4546 -1e-06 0.003093 0.103456 1.85782 -10.5485 -10.8517 -2.99585 168.095 43.5 -2.7e-05 4e-06 -48.4301 11.8524 3.82021 42.3723 -3.55271e-15 1e-05 79.1951 9.40104 -15.3641 17.3 -6e-06 1.7e-05 21.4546 -1.9e-05 -0.003116 6.90197 -2.60373 -3e-06 8.23822 0.0341187 -0.327624 12.5881 1e-05 8e-06 6.46302 0.0976255 -0.632797 12.3432 -1.8e-05 -5e-06 6.14487 0.153419 -0.62429 25.8329 2.3e-05 7e-06 3.57541 -0.0171883 -7.39407 11.7666 -8e-06 -6e-06 -15.4268 -3.02896 10.4567 19.7459 -1.48035 6.0001 -178.452 -3.21698 -83.4153 11.2841 1.8e-05 -2e-05 16.8274 -17.0287 46.0012 33 -1.3e-05 1.9e-05 -48.8809 1.03908 -8.87182 25.2 3.2e-05 1.1e-05 -0.973594 31.6221 -2.54956 19.7461 -1.48036 -6.00008 -176.641 10.2916 78.2422 11.2841 -7.10543e-15 -1e-06 -2.40975 6.92741 -31.729 33.0001 1.6e-05 -1e-06 -62.6053 -6.5174 21.0337 25.1998 0.000123 0.000432 -4.12084 -15.0159 7.05224 
25.1839 90.5214 4.71083 57.0677 81.5509 36.3951 0.103456 1.85784 10.5485 13.5544 4.19376 175.176 43.5 -4.2e-05 1e-05 -8.87749 -10.4726 -1.65031 42.3722 1.9e-05 7.10543e-15 79.1066 -3.57511 4.4674 17.3 -8.88178e-16 3e-06 21.4546 -1e-06 0.003093 0.103456 1.85782 -10.5485 -15.4371 -2.181 167.996 43.5 -2.7e-05 4e-06 -56.0478 11.6079 3.34733 42.3723 3.55271e-15 1e-05 75.5363 8.48503 -17.7087 17.3 -6e-06 1.7e-05 21.4546 -1.9e-05 -0.003116 6.90197 -2.60373 -3e-06 8.44076 0.0554648 -0.392766 12.5881 1e-05 8e-06 6.86819 0.133207 -0.765693 12.3432 -1.8e-05 -5e-06 6.54987 0.186842 -0.758681 25.8329 2.3e-05 7e-06 3.82943 0.199238 -7.55429 11.7666 -8e-06 -6e-06 -15.1771 -2.57815 10.285 19.7459 -1.48035 6.0001 -177.514 -2.78854 -82.0948 11.2841 1.8e-05 -2e-05 15.4528 -16.3983 49.6165 33 -1.3e-05 1.9e-05 -52.0345 0.395052 -7.56128 25.2 3.2e-05 1.1e-05 -2.88575 32.4589 -2.86744 19.7461 -1.48036 -6.00008 -175.2 10.4304 76.2565 11.2841 0 -1e-06 -2.72669 6.85342 -35.2671 33.0001 1.6e-05 -1e-06 -67.8378 -5.83864 21.1173 25.1998 0.000123 0.000432 -5.86449 -14.7089 7.45412 
